<svg xmlns="http://www.w3.org/2000/svg" width="172.95pt" height="93.984pt" viewBox="0 0 172.95 93.984"><path fill="#656263" d="M128.27 0H12.21a5.021 5.021 0 0 0-5.02 5.023v10.2a5.021 5.021 0 0 0 5.02 5.023h27.383l-3.898 6.66 11.383-6.66h46.328l11.863 7.14-4.38-7.14h27.384c2.77 0 5.02-2.25 5.02-5.024V5.023A5.024 5.024 0 0 0 128.272 0"/><g fill="#fff"><path d="M20.187 7.27h.098l1.933 2.843 1.242-3.61 1.95.79-.325.71-.492 1.06-.5 1.066-.3.656-.27.578-.344.719c-.129.277-.254.527-.37.762-.118.23-.247.48-.388.758l-.109.004-2.125-2.965-.605.883-.567.789-.52.754-.519.765h-.098a26.621 26.621 0 0 0-.394-.973 24.436 24.436 0 0 0-.317-.75l-.808-1.875-.656-1.543-.227-.554-.215-.52-.183-.465 2.05-.75.434 1.368c.11.359.184.617.227.761.043.149.097.328.175.54l.164.519.22.695c.394-.656.75-1.246 1.07-1.77.207-.34.464-.75.769-1.245M26.227 6.492l.395-.02.511-.015 1.094-.062.375-.02h.887l.875-.055.039 1.594-.668.012h-.258l-.336.012h-.785v1.308l.742-.055c.192 0 .34-.004.445-.008.114-.003.293-.011.54-.035l.02 1.543-1.747-.03v1.14c.125 0 .312.004.555.008.238.008.414.008.523.008l.234-.012.262-.004.328-.012.262-.008.059 1.653-4.352-.094.02-3.441zM36.355 6.293h.102l2.304 3.797 2.242-3.645h.106l2.86 6.325-1.954.863-.328-.844-.348-.894-.308-.825-.332-.906-.473.703-.605.914c-.09.14-.196.305-.317.48-.156.227-.238.348-.25.368a7.447 7.447 0 0 0-.195.289 6.02 6.02 0 0 1-.23.324h-.106l-.41-.652-.688-1.059-.48-.789-.328-.535-.262.871-.238.828-.278.922-.25.805-.175-.063-.239-.09-.27-.105-.222-.086-.441-.156-.547-.211.633-1.625.715-1.805.625-1.53zM47.16 10.898l1.633-.098-.813-1.617-.172.348-.171.355-.211.434zm-3.078 1.727.844-1.415.238-.402.23-.375.34-.566.324-.547.395-.672.344-.566.242-.414.273-.442.297-.488.356-.567h.093l.387.586.594.918 1.164 1.778.926 1.426.48.73.606.914-1.907 1.125-.851-1.492-2.918.172-.145.297-.152.316-.172.375-.156.332zM55.402 10.187l-.016.492.032.988.015.465.02.477.008.828h-2.239l.008-1.02v-.695l.012-.402.012-.664.004-.52.011-1.094-.011-1.488-.035-1.148h2.238l-.027 1.129-.016 1.132-.016.336v.559h.043l.114-.145.164-.214.144-.188.293-.367.313-.399.308-.375.262-.332.191-.242.22-.27.288-.355.262-.324 1.598 1.41-2.032 2.09.305.328.195.2.454.484.562.605.602.63-1.703 1.484-.395-.528-.473-.605-.296-.395-.211-.277-.172-.242-.242-.317-.75-1.03zM60.855 6.492l.395-.02.511-.015 1.094-.062.375-.02h.887l.875-.055.035 1.594-.66.012h-.262l-.336.012h-.789v1.308l.742-.055c.192 0 .344-.004.45-.008.113-.003.292-.011.539-.035l.02 1.543-1.75-.03v1.14c.132 0 .312.004.554.008.238.008.418.008.523.008l.242-.012.258-.004.328-.012.262-.008.059 1.653-4.352-.094.02-3.441zM73.434 7.27h.09l1.933 2.843 1.243-3.61 1.957.79-.332.71-.489 1.06-.5 1.066-.297.656-.273.578-.344.719c-.129.277-.254.527-.375.762-.113.23-.242.48-.386.758l-.106.004-2.121-2.965-.606.883-.574.789-.515.754-.524.765h-.098a26.566 26.566 0 0 0-.39-.973 36.38 36.38 0 0 0-.32-.75l-.805-1.875-.652-1.543-.235-.554-.21-.52-.18-.465 2.046-.75.43 1.368c.113.359.188.617.227.761.047.149.105.328.183.54l.164.519.215.695c.395-.656.75-1.246 1.074-1.77.203-.34.457-.75.77-1.245M82.84 7.86c-.152 0-.293.019-.422.066a1.663 1.663 0 0 0-.387.21 1.888 1.888 0 0 0-.57.712c-.074.144-.137.3-.176.472-.043.172-.062.36-.062.567 0 .676.144 1.203.43 1.574.28.375.632.562 1.05.562h.137c.398-.043.711-.164.941-.378.23-.211.395-.473.493-.774.043-.164.078-.328.105-.48.027-.157.035-.32.035-.496 0-.657-.129-1.165-.394-1.524-.266-.344-.625-.512-1.086-.512zm0-1.497c.691 0 1.234.059 1.633.184.398.121.746.285 1.043.488.144.102.273.211.387.328.109.114.218.25.312.403.188.27.328.593.438.964.082.395.128.782.128 1.149 0 .242-.02.457-.062.652-.04.2-.113.414-.215.66-.18.43-.437.813-.77 1.149a3.681 3.681 0 0 1-1.222.804c-.27.106-.535.192-.805.254-.262.063-.555.09-.867.09-.602 0-1.14-.082-1.633-.25a3.7 3.7 0 0 1-1.27-.715 3.262 3.262 0 0 1-.804-1.043 3.21 3.21 0 0 1-.203-.601 2.685 2.685 0 0 1-.074-.64l.015-.36c.086-.742.328-1.38.719-1.91.398-.536.89-.934 1.477-1.204.59-.269 1.18-.402 1.773-.402M88.203 6.445l.094-.058.285.215.367.265.332.246.305.23.625.466.574.425 1.035.778 1.29.96v-.835l-.005-.664-.027-.973.016-1.04 1.949.04-.043.61-.031.554-.032.5-.047.856-.046.84-.106 2.093-.086 1.54-.097.038-1.118-.808-1.105-.828-1.36-1.036-1.21-.933v3.496l-1.918-.078.058-1.055.04-.687v-.48l.027-.509.046-.828.09-1.558.04-.883zM98.914 7.992v3.606a3.567 3.567 0 0 0 1.516-.68c.48-.363.718-.867.718-1.516 0-.289-.062-.53-.183-.726-.125-.2-.313-.34-.559-.422-.5-.172-.953-.262-1.36-.262zM96.75 6.461h.394c.309 0 .82.012 1.547.043.293.012.535.023.754.023.32 0 .598.02.836.055.238.04.524.098.867.184.743.195 1.309.48 1.696.855.394.383.593.852.593 1.418l.008.153c0 .539-.128 1.015-.37 1.433a5.076 5.076 0 0 1-1.005 1.195c-.699.575-1.55.973-2.558 1.196-.13.02-.363.062-.703.12-.344.06-.614.102-.817.13a9.62 9.62 0 0 1-1.191.074h-.059l.059-3.293v-.922l-.012-1.242zM104.93 6.492l.395-.02.507-.015 1.102-.062.367-.02h.89l.876-.055.035 1.594-.664.012h-.258l-.332.012h-.793v1.308l.742-.055a9.286 9.286 0 0 0 .988-.043l.02 1.543-1.75-.03v1.14c.129 0 .313.004.55.008.247.008.419.008.528.008l.242-.012.262-.004.324-.012.258-.008.063 1.653-4.352-.094.02-3.441zM115.66 13.648l-2.348-3.492a2.11 2.11 0 0 0 .793-.66c.196-.27.293-.532.293-.782a.79.79 0 0 0-.324-.644c-.215-.16-.555-.238-1.023-.238l.054 5.503h-2.148v-2.437c0-.367-.008-1.106-.02-2.203-.011-1.098-.023-1.824-.023-2.184h.484c.25 0 .52 0 .825.012.297.004.617.012.957.016.226 0 .437.008.632.023.192.02.508.066.958.145.445.082.84.21 1.18.402.34.183.546.426.624.726.035.153.059.32.059.5 0 .309-.098.618-.281.934a2.993 2.993 0 0 1-.391.469 4.558 4.558 0 0 1-.57.46l.242.27.219.23.203.204.218.21.211.22.223.222.715.766zM118.27 7.621c.281-.281.695-.547 1.254-.805.558-.25 1.238-.418 2.047-.496l.27 1.618c-.227 0-.41.008-.54.015a4.914 4.914 0 0 0-.394.043c-.14.02-.25.043-.324.063a3.799 3.799 0 0 0-.282.101c-.176.09-.265.219-.265.387 0 .09.05.168.148.234.094.07.27.176.531.305l.196.098.164.097.144.074c.715.387 1.074.864 1.074 1.426l-.011.145-.008.144a1.86 1.86 0 0 1-.39.864 3.33 3.33 0 0 1-.849.738 5.31 5.31 0 0 1-1.242.547c-.222.07-.46.133-.726.183-.258.047-.528.086-.797.114l-.266-1.63c.512 0 .965-.062 1.363-.179.391-.121.59-.289.59-.504 0-.094-.05-.18-.152-.258-.102-.078-.188-.148-.27-.199a4.877 4.877 0 0 0-.261-.152l-.551-.328c-.676-.426-1.016-.903-1.016-1.438 0-.219.059-.441.18-.676.09-.183.219-.359.383-.53M123.28 11.898h1.613v1.438h-1.613zm-.219-5.469 2.328.098c0 .152-.023.34-.058.554-.04.211-.067.375-.09.485l-.047.308-.059.383-.117.703-.18 1.25-.09.79c-.28 0-.492.007-.632.019-.145.016-.36.04-.645.078l-.191-1.754-.133-1.637c-.016-.183-.04-.414-.055-.699a7.822 7.822 0 0 1-.03-.578"/></g><path fill="#fab20a" d="M124.41 71.086a5.287 5.287 0 0 1-5.29 5.285 5.287 5.287 0 0 1-5.288-5.285V47.813a5.29 5.29 0 0 1 10.578 0zm11.266-23.547c-.516-2.258-1.492-4.18-2.938-5.766-1.128-1.242-2.703-2.25-4.703-3.03.086-.333.133-.673.133-1.028a4.234 4.234 0 0 0-4.23-4.23 4.23 4.23 0 0 0-4.176 3.59c-.422-.032-.848-.063-1.29-.09a4.23 4.23 0 0 0-8.312-.114H94.137v2.113a6.35 6.35 0 0 1 6.352 6.348v40.19c0 3.5-2.844 6.349-6.352 6.349v2.113h19.703V82.01h5.246c4.29 0 7.754-.594 10.398-1.777 2.657-1.176 4.477-2.88 5.47-5.086.991-2.211 1.491-5.723 1.491-10.551v-6.578c0-4.731-.261-8.231-.77-10.48"/><path fill="#fff" d="M117.14 37.715a2.824 2.824 0 0 1-2.82 2.82 2.825 2.825 0 0 1-2.824-2.82 2.826 2.826 0 0 1 2.824-2.824 2.825 2.825 0 0 1 2.82 2.824"/><path fill="#231f20" d="M115.72 37.715c0 .777-.629 1.406-1.406 1.406-.781 0-1.41-.629-1.41-1.406a1.409 1.409 0 1 1 2.816 0"/><path fill="#fff" d="M126.76 37.715a2.823 2.823 0 0 1-2.816 2.82 2.825 2.825 0 0 1-2.825-2.82 2.826 2.826 0 0 1 2.825-2.824 2.824 2.824 0 0 1 2.816 2.824"/><path fill="#231f20" d="M125.36 37.715c0 .777-.637 1.406-1.41 1.406a1.41 1.41 0 0 1-1.414-1.406 1.413 1.413 0 0 1 2.824 0"/><path fill="#656263" d="M42.523 57.129v1.063c0-4.758-.262-8.266-.77-10.54-.523-2.265-1.5-4.199-2.953-5.793-1.132-1.242-2.71-2.257-4.722-3.046.082-.332.129-.672.129-1.028a4.257 4.257 0 0 0-4.254-4.257 4.249 4.249 0 0 0-4.2 3.609 61.64 61.64 0 0 0-1.293-.086 4.255 4.255 0 0 0-4.187-3.523 4.26 4.26 0 0 0-4.168 3.406H0v2.125a6.378 6.378 0 0 1 6.379 6.379v11.69A6.377 6.377 0 0 1 0 63.513v2.124h19.797V47.938a5.316 5.316 0 1 1 10.629 0v17.698H42.52c.004-.277.004-.546.004-.828v.828h6.383v-2.124a6.378 6.378 0 0 1-6.383-6.383"/><path fill="#fff" d="M23.109 37.602a2.835 2.835 0 0 1-2.836 2.832 2.837 2.837 0 0 1-2.836-2.832 2.836 2.836 0 1 1 5.672 0"/><path fill="#231f20" d="M21.691 37.602a1.417 1.417 0 1 1-2.834-.006 1.417 1.417 0 0 1 2.834.006"/><path fill="#fff" d="M32.789 37.602c0 1.563-1.27 2.832-2.836 2.832a2.835 2.835 0 1 1 2.836-2.832"/><path fill="#231f20" d="M31.371 37.602c0 .777-.637 1.414-1.418 1.414s-1.418-.637-1.418-1.414a1.419 1.419 0 1 1 2.836 0"/><path fill="#656263" d="M63.305 51.031c-.04-1.5-.402-2.625-1.094-3.383-.691-.758-1.765-1.137-3.222-1.137-1.356 0-2.477.36-3.344 1.075-.875.718-1.367 1.867-1.469 3.445zm7.106 4.148H54.194c.106 1.774.762 3.133 1.973 4.07 1.211.946 2.992 1.41 5.356 1.41a11.77 11.77 0 0 0 4.343-.823c1.399-.547 2.504-1.14 3.32-1.766h.786v5.715c-1.594.64-3.098 1.113-4.512 1.406-1.41.285-2.969.434-4.683.434-4.422 0-7.813-1.004-10.16-3.016-2.356-2.008-3.532-4.867-3.532-8.582 0-3.68 1.114-6.594 3.348-8.738 2.234-2.149 5.29-3.223 9.18-3.223 3.59 0 6.285.91 8.097 2.738 1.801 1.829 2.7 4.457 2.7 7.88zM88.559 59.242c.457-.566.8-1.246 1.027-2.047.227-.793.344-1.89.344-3.3 0-1.302-.117-2.391-.352-3.274-.238-.883-.562-1.582-.98-2.11a3.452 3.452 0 0 0-1.508-1.148 5.337 5.337 0 0 0-1.902-.332c-.68 0-1.281.09-1.809.274-.531.183-1.035.554-1.52 1.105-.433.516-.777 1.215-1.027 2.113-.253.895-.378 2.016-.378 3.371 0 1.211.101 2.262.328 3.149.218.887.547 1.601.98 2.137.418.515.918.886 1.496 1.125.586.238 1.246.355 1.992.355a5.22 5.22 0 0 0 1.828-.32 3.394 3.394 0 0 0 1.481-1.098m8.777-5.387c0 3.645-1.062 6.52-3.191 8.618-2.125 2.101-5.113 3.152-8.957 3.152s-6.832-1.05-8.957-3.152c-2.133-2.098-3.192-4.973-3.192-8.618 0-3.675 1.075-6.554 3.207-8.648 2.145-2.094 5.125-3.14 8.942-3.14 3.879 0 6.867 1.05 8.976 3.156 2.118 2.113 3.172 4.988 3.172 8.632"/><path fill="#fab20a" d="M146.82 65.613h-7.11V33.519h7.11zM165.84 51.031c-.035-1.5-.406-2.625-1.094-3.383-.691-.758-1.765-1.137-3.23-1.137-1.356 0-2.47.36-3.344 1.075-.871.718-1.36 1.867-1.469 3.445zm7.11 4.148h-16.224c.106 1.774.762 3.133 1.977 4.07 1.21.946 2.992 1.41 5.352 1.41 1.492 0 2.941-.273 4.335-.823 1.41-.547 2.516-1.14 3.333-1.766h.78v5.715c-1.593.64-3.097 1.113-4.51 1.406-1.411.285-2.978.434-4.688.434-4.418 0-7.81-1.004-10.16-3.016-2.352-2.008-3.532-4.867-3.532-8.582 0-3.68 1.121-6.594 3.348-8.738 2.238-2.149 5.3-3.223 9.188-3.223 3.582 0 6.28.91 8.09 2.738 1.804 1.829 2.71 4.457 2.71 7.88z"/></svg>